<svg width="16" height="16" viewBox="0 0 16 16" fill="none" xmlns="http://www.w3.org/2000/svg">
<path d="M8.29401 1.53846L7.70577 1V15L8.29401 14.4615V1.53846Z" fill="#D9D9D9"/>
<path d="M8.29401 1.53846L7.70577 1V15L8.29401 14.4615V1.53846Z" fill="#D9D9D9"/>
<path d="M5.94104 6.38461L5.35281 6.92307V13.9231H5.94104V6.38461Z" fill="#D9D9D9"/>
<path d="M5.94104 6.38461L5.35281 6.92307V13.9231H5.94104V6.38461Z" fill="#D9D9D9"/>
<path d="M4.76459 8L4.17635 8.42308V13.9231H4.76459V8Z" fill="#D9D9D9"/>
<path d="M4.76459 8L4.17635 8.42308V13.9231H4.76459V8Z" fill="#D9D9D9"/>
<path d="M7.11755 3.69232L6.52932 4.23077V13.9231H7.11755V3.69232Z" fill="#D9D9D9"/>
<path d="M7.11755 3.69232L6.52932 4.23077V13.9231H7.11755V3.69232Z" fill="#D9D9D9"/>
<path d="M3.58801 10.6923L2.99978 11.2308V13.9231H3.58801V10.6923Z" fill="#D9D9D9"/>
<path d="M3.58801 10.6923L2.99978 11.2308V13.9231H3.58801V10.6923Z" fill="#D9D9D9"/>
<path d="M9.47052 3.70611L8.88229 3.15384V13.9231H9.47052V3.70611Z" fill="#D9D9D9"/>
<path d="M9.47052 3.70611L8.88229 3.15384V13.9231H9.47052V3.70611Z" fill="#D9D9D9"/>
<path d="M10.647 5.84614L10.0587 5.30768V13.9231H10.647V5.84614Z" fill="#D9D9D9"/>
<path d="M10.647 5.84614L10.0587 5.30768V13.9231H10.647V5.84614Z" fill="#D9D9D9"/>
<path d="M11.8235 8.00001L11.2353 7.46155V13.9231H11.8235V8.00001Z" fill="#D9D9D9"/>
<path d="M11.8235 8.00001L11.2353 7.46155V13.9231H11.8235V8.00001Z" fill="#D9D9D9"/>
<path d="M12.9999 10.6923L12.4116 10.1538V13.9231H12.9999V10.6923Z" fill="#D9D9D9"/>
<path d="M12.9999 10.6923L12.4116 10.1538V13.9231H12.9999V10.6923Z" fill="#D9D9D9"/>
</svg>
