<svg width="64" height="64" viewBox="0 0 64 64" fill="none" xmlns="http://www.w3.org/2000/svg">
<g id="logo64">
<g id="Rectangle 1">
<path d="M33.1181 3.38462L30.8828 1V63L33.1181 60.6154V3.38462Z" fill="#D9D9D9"/>
<path d="M33.1181 3.38462L30.8828 1V63L33.1181 60.6154V3.38462Z" fill="#D9D9D9"/>
</g>
<g id="Rectangle 3">
<path d="M24.1767 24.846L21.9414 27.2307V58.2306H24.1767V24.846Z" fill="#D9D9D9"/>
<path d="M24.1767 24.846L21.9414 27.2307V58.2306H24.1767V24.846Z" fill="#D9D9D9"/>
</g>
<g id="Rectangle 10">
<path d="M19.7058 32L17.4705 33.8736V58.2308H19.7058V32Z" fill="#D9D9D9"/>
<path d="M19.7058 32L17.4705 33.8736V58.2308H19.7058V32Z" fill="#D9D9D9"/>
</g>
<g id="Rectangle 4">
<path d="M28.647 12.9232L26.4117 15.3077V58.2309H28.647V12.9232Z" fill="#D9D9D9"/>
<path d="M28.647 12.9232L26.4117 15.3077V58.2309H28.647V12.9232Z" fill="#D9D9D9"/>
</g>
<g id="Rectangle 5">
<path d="M15 43.0714L13 45.6547V58.2436H15V43.0714Z" fill="#D9D9D9"/>
<path d="M15 43.0714L13 45.6547V58.2436H15V43.0714Z" fill="#D9D9D9"/>
</g>
<g id="Rectangle 6">
<path d="M37.5883 12.9843L35.353 10.5385V58.2309H37.5883V12.9843Z" fill="#D9D9D9"/>
<path d="M37.5883 12.9843L35.353 10.5385V58.2309H37.5883V12.9843Z" fill="#D9D9D9"/>
</g>
<g id="Rectangle 7">
<path d="M42.0591 22.4614L39.8238 20.0768V58.2307H42.0591V22.4614Z" fill="#D9D9D9"/>
<path d="M42.0591 22.4614L39.8238 20.0768V58.2307H42.0591V22.4614Z" fill="#D9D9D9"/>
</g>
<g id="Rectangle 8">
<path d="M46.5292 32L44.2939 29.6154V58.2307H46.5292V32Z" fill="#D9D9D9"/>
<path d="M46.5292 32L44.2939 29.6154V58.2307H46.5292V32Z" fill="#D9D9D9"/>
</g>
<g id="Rectangle 9">
<path d="M51 43.9231L48.7647 41.5385V58.2308H51V43.9231Z" fill="#D9D9D9"/>
<path d="M51 43.9231L48.7647 41.5385V58.2308H51V43.9231Z" fill="#D9D9D9"/>
</g>
</g>
</svg>
