<svg width="350" height="350" viewBox="0 0 350 350" fill="none" xmlns="http://www.w3.org/2000/svg">
<g filter="url(#filter0_d_4_2)">
<path d="M11.0001 101C11 51.2947 52.0475 11.0003 102.682 11.0003L246.318 11.0001C296.952 11 338 51.2943 338 101L338 248C338 297.706 296.953 338 246.318 338L102.683 338C52.0479 338 11.0003 297.706 11.0003 248L11.0001 101Z" fill="black"/>
<path d="M76.1963 52.0003L84.3458 52.0003L84.3461 297L76.1966 297L76.1963 52.0003Z" fill="#D9D9D9"/>
<path d="M271.785 81.0001L279.935 81L279.935 297L271.785 297L271.785 81.0001Z" fill="#D9D9D9"/>
<path d="M222.888 128L231.038 128L231.038 297L222.888 297L222.888 128Z" fill="#D9D9D9"/>
<path d="M173.991 104L182.14 104L182.141 297L173.991 297L173.991 104Z" fill="#D9D9D9"/>
<path d="M125.094 163L133.243 163L133.243 297L125.094 297L125.094 163Z" fill="#D9D9D9"/>
<path d="M102.683 11.5003L246.317 11.5001C296.685 11.5 337.5 51.5792 337.5 101L337.5 248C337.5 297.421 296.685 337.5 246.318 337.5L102.683 337.5C52.3157 337.5 11.5003 297.421 11.5003 248L11.5001 101C11.5 51.5796 52.3153 11.5003 102.683 11.5003ZM75.6966 297.5L84.846 297.5L84.8458 51.5003L75.6963 51.5003L75.6966 297.5ZM124.594 297.5L133.744 297.5L133.743 162.5L124.594 162.5L124.594 297.5ZM173.491 297.5L182.641 297.5L182.641 103.5L173.49 103.5L173.491 297.5ZM222.388 297.5L231.537 297.5L231.537 127.5L222.388 127.5L222.388 297.5ZM271.285 297.5L280.435 297.5L280.435 80.5L271.285 80.5001L271.285 297.5ZM279.435 81.5L279.435 296.5L272.285 296.5L272.285 81.5001L279.435 81.5ZM230.537 128.5L230.537 296.5L223.388 296.5L223.388 128.5L230.537 128.5ZM181.641 104.5L181.641 296.5L174.491 296.5L174.49 104.5L181.641 104.5ZM132.743 163.5L132.744 296.5L125.594 296.5L125.594 163.5L132.743 163.5ZM83.8458 52.5003L83.846 296.5L76.6966 296.5L76.6963 52.5003L83.8458 52.5003Z" stroke="black"/>
</g>
<defs>
<filter id="filter0_d_4_2" x="7.00012" y="11.0001" width="335" height="335" filterUnits="userSpaceOnUse" color-interpolation-filters="sRGB">
<feFlood flood-opacity="0" result="BackgroundImageFix"/>
<feColorMatrix in="SourceAlpha" type="matrix" values="0 0 0 0 0 0 0 0 0 0 0 0 0 0 0 0 0 0 127 0" result="hardAlpha"/>
<feOffset dy="4"/>
<feGaussianBlur stdDeviation="2"/>
<feComposite in2="hardAlpha" operator="out"/>
<feColorMatrix type="matrix" values="0 0 0 0 0 0 0 0 0 0 0 0 0 0 0 0 0 0 0.25 0"/>
<feBlend mode="normal" in2="BackgroundImageFix" result="effect1_dropShadow_4_2"/>
<feBlend mode="normal" in="SourceGraphic" in2="effect1_dropShadow_4_2" result="shape"/>
</filter>
</defs>
</svg>
