<svg width="32" height="32" viewBox="0 0 32 32" fill="none" xmlns="http://www.w3.org/2000/svg">
<path d="M16.5884 2.15385L15.5 1L15.4119 31L16.5884 29.8462V2.15385Z" fill="#D9D9D9"/>
<path d="M16.5884 2.15385L15.5 1L15.4119 31L16.5884 29.8462V2.15385Z" fill="#D9D9D9"/>
<path d="M11.8822 12.5384L10.7057 13.6923V28.6923H11.8822V12.5384Z" fill="#D9D9D9"/>
<path d="M11.8822 12.5384L10.7057 13.6923V28.6923H11.8822V12.5384Z" fill="#D9D9D9"/>
<path d="M9.52905 16L8.35256 16.9066V28.6923H9.52905V16Z" fill="#D9D9D9"/>
<path d="M9.52905 16L8.35256 16.9066V28.6923H9.52905V16Z" fill="#D9D9D9"/>
<path d="M14.235 6.76926L13.0585 7.92308V28.6923H14.235V6.76926Z" fill="#D9D9D9"/>
<path d="M14.235 6.76926L13.0585 7.92308V28.6923H14.235V6.76926Z" fill="#D9D9D9"/>
<path d="M7.17609 21.7693L5.99959 22.9231V28.6923H7.17609V21.7693Z" fill="#D9D9D9"/>
<path d="M7.17609 21.7693L5.99959 22.9231V28.6923H7.17609V21.7693Z" fill="#D9D9D9"/>
<path d="M18.941 6.79885L17.7645 5.61542V28.6923H18.941V6.79885Z" fill="#D9D9D9"/>
<path d="M18.941 6.79885L17.7645 5.61542V28.6923H18.941V6.79885Z" fill="#D9D9D9"/>
<path d="M21.2942 11.3846L20.1177 10.2307V28.6923H21.2942V11.3846Z" fill="#D9D9D9"/>
<path d="M21.2942 11.3846L20.1177 10.2307V28.6923H21.2942V11.3846Z" fill="#D9D9D9"/>
<path d="M23.647 16L22.4705 14.8462V28.6923H23.647V16Z" fill="#D9D9D9"/>
<path d="M23.647 16L22.4705 14.8462V28.6923H23.647V16Z" fill="#D9D9D9"/>
<path d="M26.0001 21.7693L24.8236 20.6154V28.6923H26.0001V21.7693Z" fill="#D9D9D9"/>
<path d="M26.0001 21.7693L24.8236 20.6154V28.6923H26.0001V21.7693Z" fill="#D9D9D9"/>
</svg>
