<svg width="86" height="110" viewBox="0 0 86 110" fill="none" xmlns="http://www.w3.org/2000/svg">
<g filter="url(#filter0_d_5_2)">
<path d="M44.1181 26.3846L41.8828 24V86L44.1181 83.6154V26.3846Z" fill="#D9D9D9"/>
<path d="M44.1181 26.3846L41.8828 24V86L44.1181 83.6154V26.3846Z" fill="#D9D9D9"/>
<path d="M35.1767 47.8461L32.9414 50.2307V81.2307H35.1767V47.8461Z" fill="#D9D9D9"/>
<path d="M35.1767 47.8461L32.9414 50.2307V81.2307H35.1767V47.8461Z" fill="#D9D9D9"/>
<path d="M30.7058 55L28.4705 56.8736V81.2308H30.7058V55Z" fill="#D9D9D9"/>
<path d="M30.7058 55L28.4705 56.8736V81.2308H30.7058V55Z" fill="#D9D9D9"/>
<path d="M39.647 35.9232L37.4117 38.3077V81.2308H39.647V35.9232Z" fill="#D9D9D9"/>
<path d="M39.647 35.9232L37.4117 38.3077V81.2308H39.647V35.9232Z" fill="#D9D9D9"/>
<path d="M26 66.0714L24 68.6547V81.2436H26V66.0714Z" fill="#D9D9D9"/>
<path d="M26 66.0714L24 68.6547V81.2436H26V66.0714Z" fill="#D9D9D9"/>
<path d="M48.5883 35.9843L46.353 33.5386V81.2309H48.5883V35.9843Z" fill="#D9D9D9"/>
<path d="M48.5883 35.9843L46.353 33.5386V81.2309H48.5883V35.9843Z" fill="#D9D9D9"/>
<path d="M53.0591 45.4615L50.8238 43.0768V81.2307H53.0591V45.4615Z" fill="#D9D9D9"/>
<path d="M53.0591 45.4615L50.8238 43.0768V81.2307H53.0591V45.4615Z" fill="#D9D9D9"/>
<path d="M57.5292 55L55.2939 52.6154V81.2307H57.5292V55Z" fill="#D9D9D9"/>
<path d="M57.5292 55L55.2939 52.6154V81.2307H57.5292V55Z" fill="#D9D9D9"/>
<path d="M62 66.9231L59.7647 64.5385V81.2308H62V66.9231Z" fill="#D9D9D9"/>
<path d="M62 66.9231L59.7647 64.5385V81.2308H62V66.9231Z" fill="#D9D9D9"/>
</g>
<defs>
<filter id="filter0_d_5_2" x="0" y="0" width="86" height="110" filterUnits="userSpaceOnUse" color-interpolation-filters="sRGB">
<feFlood flood-opacity="0" result="BackgroundImageFix"/>
<feColorMatrix in="SourceAlpha" type="matrix" values="0 0 0 0 0 0 0 0 0 0 0 0 0 0 0 0 0 0 127 0" result="hardAlpha"/>
<feOffset/>
<feGaussianBlur stdDeviation="12"/>
<feComposite in2="hardAlpha" operator="out"/>
<feColorMatrix type="matrix" values="0 0 0 0 1 0 0 0 0 1 0 0 0 0 1 0 0 0 0.25 0"/>
<feBlend mode="normal" in2="BackgroundImageFix" result="effect1_dropShadow_5_2"/>
<feBlend mode="normal" in="SourceGraphic" in2="effect1_dropShadow_5_2" result="shape"/>
</filter>
</defs>
</svg>
